<?xml version="1.0" encoding="UTF-8"?>
<!DOCTYPE svg PUBLIC "-//W3C//DTD SVG 1.1//EN" "http://www.w3.org/Graphics/SVG/1.1/DTD/svg11.dtd">
<svg xmlns="http://www.w3.org/2000/svg" version="1.1" width="464px" height="125px" style="shape-rendering:geometricPrecision; text-rendering:geometricPrecision; image-rendering:optimizeQuality; fill-rule:evenodd; clip-rule:evenodd" xmlns:xlink="http://www.w3.org/1999/xlink">
<g><path style="opacity:1" fill="#fefdfe" d="M -0.5,-0.5 C 19.1667,-0.5 38.8333,-0.5 58.5,-0.5C 52.6778,7.5972 53.3445,15.0972 60.5,22C 75.1142,26.0468 81.9475,20.5468 81,5.5C 79.668,3.34004 78.168,1.34004 76.5,-0.5C 205.5,-0.5 334.5,-0.5 463.5,-0.5C 463.5,41.1667 463.5,82.8333 463.5,124.5C 308.833,124.5 154.167,124.5 -0.5,124.5C -0.5,82.8333 -0.5,41.1667 -0.5,-0.5 Z"/></g>
<g><path style="opacity:1" fill="#ff8934" d="M 58.5,-0.5 C 64.5,-0.5 70.5,-0.5 76.5,-0.5C 78.168,1.34004 79.668,3.34004 81,5.5C 81.9475,20.5468 75.1142,26.0468 60.5,22C 53.3445,15.0972 52.6778,7.5972 58.5,-0.5 Z"/></g>
<g><path style="opacity:1" fill="#b5aee9" d="M 17.5,26.5 C 29.5,26.5 41.5,26.5 53.5,26.5C 51.3788,53.6208 36.7121,67.9542 9.5,69.5C 9.33347,57.8286 9.50014,46.1619 10,34.5C 12.0282,31.3078 14.5282,28.6411 17.5,26.5 Z"/></g>
<g><path style="opacity:1" fill="#6c5dd3" d="M 81.5,26.5 C 87.5933,26.1392 93.5933,26.6392 99.5,28C 101.709,29.8734 103.542,32.04 105,34.5C 105.667,60.5 105.667,86.5 105,112.5C 103.833,116.333 101.333,118.833 97.5,120C 70.8333,120.667 44.1667,120.667 17.5,120C 15.04,118.542 12.8734,116.709 11,114.5C 9.64931,108.928 9.14931,103.262 9.5,97.5C 45.7691,95.3847 69.2691,77.0514 80,42.5C 81.0946,37.2203 81.5946,31.887 81.5,26.5 Z"/></g>
<g><path style="opacity:1" fill="#6c5dd3" d="M 134.5,80.5 C 139.167,80.5 143.833,80.5 148.5,80.5C 148.187,84.0419 148.521,87.3752 149.5,90.5C 149.738,93.1483 151.072,94.9817 153.5,96C 158.152,97.1931 162.319,96.3597 166,93.5C 167.308,74.9234 167.975,56.2567 168,37.5C 169.167,36.3333 170.333,35.1667 171.5,34C 175.152,33.5014 178.818,33.3347 182.5,33.5C 182.667,53.8361 182.5,74.1694 182,94.5C 180.193,101.64 175.693,106.14 168.5,108C 156.435,111.591 145.935,109.091 137,100.5C 134.798,94.028 133.965,87.3614 134.5,80.5 Z"/></g>
<g><path style="opacity:1" fill="#9286de" d="M 287.5,33.5 C 287.831,41.5277 287.498,49.5277 286.5,57.5C 285.893,57.3764 285.56,57.0431 285.5,56.5C 286.167,48.8333 286.833,41.1667 287.5,33.5 Z"/></g>
<g><path style="opacity:1" fill="#6e5fd3" d="M 287.5,33.5 C 292.849,32.4614 297.349,33.7947 301,37.5C 301.667,54.8333 301.667,72.1667 301,89.5C 299.732,97.8876 295.232,103.721 287.5,107C 258.736,114.211 244.902,103.044 246,73.5C 248.798,53.6776 259.965,46.1776 279.5,51C 281.996,52.331 283.996,54.1644 285.5,56.5C 285.56,57.0431 285.893,57.3764 286.5,57.5C 287.498,49.5277 287.831,41.5277 287.5,33.5 Z"/></g>
<g><path style="opacity:1" fill="#6e5fd3" d="M 205.5,64.5 C 200.637,64.8195 195.97,64.4861 191.5,63.5C 192.905,56.2604 197.238,51.7604 204.5,50C 211.5,49.3333 218.5,49.3333 225.5,50C 230.8,51.2286 234.967,54.0619 238,58.5C 239.592,68.7595 239.926,79.0928 239,89.5C 237.86,96.9585 234.027,102.459 227.5,106C 218.709,109.496 209.709,110.163 200.5,108C 190.843,103.061 187.343,95.2276 190,84.5C 191.461,80.7403 193.961,77.9069 197.5,76C 205.276,73.1476 213.276,71.1476 221.5,70C 225.386,67.4743 225.386,64.8077 221.5,62C 217.167,61.3333 212.833,61.3333 208.5,62C 207.627,63.045 206.627,63.8783 205.5,64.5 Z"/></g>
<g><path style="opacity:1" fill="#6f5fd3" d="M 408.5,49.5 C 415.508,49.3337 422.508,49.5004 429.5,50C 435.805,51.2299 440.305,54.7299 443,60.5C 443.667,70.8333 443.667,81.1667 443,91.5C 439.57,102.989 431.737,108.822 419.5,109C 401.283,111.444 392.783,103.61 394,85.5C 396.857,78.6331 402.024,74.4665 409.5,73C 414.896,72.2772 420.229,71.2772 425.5,70C 428.306,68.6949 429.14,66.5282 428,63.5C 425.243,61.9733 422.243,61.3066 419,61.5C 416.833,61.6667 414.667,61.8333 412.5,62C 411.643,62.6891 410.977,63.5224 410.5,64.5C 405.544,65.4941 400.544,65.8275 395.5,65.5C 396.864,57.7979 401.198,52.4646 408.5,49.5 Z"/></g>
<g><path style="opacity:1" fill="#6f60d4" d="M 307.5,49.5 C 312.5,49.5 317.5,49.5 322.5,49.5C 325.56,62.8618 328.727,76.1951 332,89.5C 334.942,76.1823 337.775,62.849 340.5,49.5C 345.875,49.1718 351.208,49.5052 356.5,50.5C 359.025,62.9672 361.858,75.3005 365,87.5C 367.598,75.7111 370.598,64.0444 374,52.5C 374.903,51.2986 376.069,50.4652 377.5,50C 381.486,49.5012 385.486,49.3345 389.5,49.5C 384.015,69.1053 378.682,88.7719 373.5,108.5C 368.167,108.5 362.833,108.5 357.5,108.5C 354.986,94.7849 352.153,81.1183 349,67.5C 345.198,80.9554 342.031,94.6221 339.5,108.5C 334.167,108.5 328.833,108.5 323.5,108.5C 318.323,88.7903 312.989,69.1236 307.5,49.5 Z"/></g>
<g><path style="opacity:1" fill="#fcfcfe" d="M 268.5,62.5 C 277.302,60.1486 283.135,63.1486 286,71.5C 286.861,77.5851 286.527,83.5851 285,89.5C 281.235,95.7603 275.735,97.9269 268.5,96C 265.619,94.7494 263.786,92.5827 263,89.5C 260.451,81.1707 261.118,73.1707 265,65.5C 266.518,64.8366 267.685,63.8366 268.5,62.5 Z"/></g>
<g><path style="opacity:1" fill="#a69ee5" d="M 191.5,63.5 C 195.97,64.4861 200.637,64.8195 205.5,64.5C 200.652,65.8137 195.652,65.8137 190.5,64.5C 190.624,63.8933 190.957,63.56 191.5,63.5 Z"/></g>
<g><path style="opacity:1" fill="#9187de" d="M 134.5,80.5 C 139.305,79.5128 144.305,79.1795 149.5,79.5C 149.5,83.1667 149.5,86.8333 149.5,90.5C 148.521,87.3752 148.187,84.0419 148.5,80.5C 143.833,80.5 139.167,80.5 134.5,80.5 Z"/></g>
<g><path style="opacity:1" fill="#faf9fd" d="M 222.5,79.5 C 226.681,92.512 221.681,98.3453 207.5,97C 202.274,92.5847 202.274,88.2514 207.5,84C 212.604,82.4241 217.604,80.9241 222.5,79.5 Z"/></g>
<g><path style="opacity:1" fill="#fafafd" d="M 427.5,79.5 C 428.477,82.2869 428.81,85.2869 428.5,88.5C 425.371,96.0651 419.704,98.8984 411.5,97C 407.95,93.2685 407.617,89.2685 410.5,85C 416.112,82.9783 421.779,81.1449 427.5,79.5 Z"/></g>
<g><path style="opacity:1" fill="#a89fe5" d="M 427.5,79.5 C 427.56,78.9569 427.893,78.6236 428.5,78.5C 429.806,81.9798 429.806,85.3132 428.5,88.5C 428.81,85.2869 428.477,82.2869 427.5,79.5 Z"/></g>
</svg>
